<svg xmlns="http://www.w3.org/2000/svg" xmlns:xlink="http://www.w3.org/1999/xlink" viewBox="0 0 216 216"><defs><style>.cls-1,.cls-10,.cls-13,.cls-17,.cls-4,.cls-7,.cls-9{fill:none;}.cls-11,.cls-14,.cls-15,.cls-16,.cls-18,.cls-2,.cls-5{fill:#fff;}.cls-10,.cls-11,.cls-13,.cls-14,.cls-15,.cls-16,.cls-17,.cls-18,.cls-2,.cls-4,.cls-7,.cls-9{stroke:#231f20;}.cls-10,.cls-11,.cls-13,.cls-14,.cls-15,.cls-16,.cls-19,.cls-2,.cls-20,.cls-21,.cls-4,.cls-7,.cls-9{stroke-miterlimit:10;}.cls-10,.cls-15,.cls-17,.cls-18,.cls-2,.cls-7{stroke-width:3px;}.cls-3{clip-path:url(#clip-path);}.cls-19,.cls-20,.cls-21,.cls-4,.cls-9{stroke-width:1.5px;}.cls-6{clip-path:url(#clip-path-2);}.cls-13,.cls-14,.cls-15,.cls-17,.cls-18,.cls-7,.cls-9{stroke-linecap:round;}.cls-8{fill:#231f20;}.cls-11,.cls-13,.cls-14,.cls-16{stroke-width:6px;}.cls-11{opacity:0.98;}.cls-12{clip-path:url(#clip-path-3);}.cls-17,.cls-18{stroke-linejoin:round;}.cls-19{fill:#d86259;stroke:#ce3a2c;}.cls-20{fill:#a977b4;stroke:#9157a3;}.cls-21{fill:#5dae49;stroke:#349a46;}</style><clipPath id="clip-path"><circle class="cls-1" cx="-129.55" cy="108.33" r="72.25"/></clipPath><clipPath id="clip-path-2"><polygon class="cls-2" points="108 9.57 67.52 18.17 34.04 42.49 13.35 78.33 9.03 119.49 21.81 158.85 49.5 189.6 87.31 206.43 128.69 206.43 166.5 189.6 194.19 158.85 206.97 119.49 202.65 78.33 181.96 42.49 148.48 18.17 108 9.57"/></clipPath><clipPath id="clip-path-3"><circle class="cls-1" cx="108.07" cy="108.12" r="72.25"/></clipPath></defs><title>Water Models</title>
<g id="Layer_5" data-name="Layer 5"><polygon class="cls-5" points="108 9.57 67.52 18.17 34.04 42.49 13.35 78.33 9.03 119.49 21.81 158.85 49.5 189.6 87.31 206.43 128.69 206.43 166.5 189.6 194.19 158.85 206.97 119.49 202.65 78.33 181.96 42.49 148.48 18.17 108 9.57"/><g class="cls-6"><line class="cls-7" x1="108" y1="-0.35" x2="108" y2="27.26"/><line class="cls-7" x1="85.47" y1="2.02" x2="91.21" y2="29.03"/><line class="cls-7" x1="63.93" y1="9.02" x2="75.16" y2="34.24"/><line class="cls-7" x1="44.31" y1="20.34" x2="60.54" y2="42.68"/><line class="cls-7" x1="27.48" y1="35.5" x2="48" y2="53.98"/><line class="cls-7" x1="14.17" y1="53.83" x2="38.08" y2="67.63"/><line class="cls-7" x1="4.95" y1="74.52" x2="31.21" y2="83.05"/><line class="cls-7" x1="0.24" y1="96.67" x2="27.7" y2="99.56"/><line class="cls-7" x1="0.24" y1="119.33" x2="27.7" y2="116.44"/><line class="cls-7" x1="4.95" y1="141.48" x2="31.21" y2="132.95"/><line class="cls-7" x1="14.17" y1="162.17" x2="38.08" y2="148.37"/><line class="cls-7" x1="27.48" y1="180.5" x2="48" y2="162.02"/><line class="cls-7" x1="44.31" y1="195.66" x2="60.54" y2="173.32"/><line class="cls-7" x1="63.93" y1="206.98" x2="75.16" y2="181.76"/><line class="cls-7" x1="85.47" y1="213.98" x2="91.21" y2="186.97"/><line class="cls-7" x1="108" y1="216.35" x2="108" y2="188.74"/><line class="cls-7" x1="130.53" y1="213.98" x2="124.79" y2="186.97"/><line class="cls-7" x1="152.07" y1="206.98" x2="140.84" y2="181.76"/><line class="cls-7" x1="171.69" y1="195.66" x2="155.46" y2="173.32"/><line class="cls-7" x1="188.52" y1="180.5" x2="168" y2="162.02"/><line class="cls-7" x1="201.83" y1="162.17" x2="177.92" y2="148.37"/><line class="cls-7" x1="211.05" y1="141.48" x2="184.79" y2="132.95"/><line class="cls-7" x1="215.76" y1="119.33" x2="188.3" y2="116.44"/><line class="cls-7" x1="215.76" y1="96.67" x2="188.3" y2="99.56"/><line class="cls-7" x1="211.05" y1="74.52" x2="184.79" y2="83.05"/><line class="cls-7" x1="201.83" y1="53.83" x2="177.92" y2="67.63"/><line class="cls-7" x1="188.52" y1="35.5" x2="168" y2="53.98"/><line class="cls-7" x1="171.69" y1="20.34" x2="155.46" y2="42.68"/><line class="cls-7" x1="152.07" y1="9.02" x2="140.84" y2="34.24"/><line class="cls-7" x1="130.53" y1="2.02" x2="124.79" y2="29.03"/><circle class="cls-8" cx="108" cy="108" r="1.68"/><line class="cls-9" x1="96.94" y1="0.22" x2="99.76" y2="27.68"/><line class="cls-9" x1="74.78" y1="4.87" x2="83.24" y2="31.15"/><line class="cls-9" x1="54.06" y1="14.03" x2="67.81" y2="37.98"/><line class="cls-9" x1="35.7" y1="27.3" x2="54.13" y2="47.87"/><line class="cls-9" x1="20.5" y1="44.1" x2="42.8" y2="60.38"/><line class="cls-9" x1="9.13" y1="63.68" x2="34.32" y2="74.98"/><line class="cls-9" x1="2.07" y1="85.21" x2="29.07" y2="91.02"/><line class="cls-9" x1="-0.35" y1="107.73" x2="27.26" y2="107.8"/><line class="cls-9" x1="1.96" y1="130.26" x2="28.98" y2="124.59"/><line class="cls-9" x1="8.91" y1="151.82" x2="34.16" y2="140.66"/><line class="cls-9" x1="20.19" y1="171.47" x2="42.56" y2="155.29"/><line class="cls-9" x1="35.3" y1="188.34" x2="53.83" y2="167.87"/><line class="cls-9" x1="53.59" y1="201.7" x2="67.46" y2="177.82"/><line class="cls-9" x1="74.26" y1="210.96" x2="82.86" y2="184.72"/><line class="cls-9" x1="96.41" y1="215.73" x2="99.36" y2="188.27"/><line class="cls-9" x1="119.06" y1="215.78" x2="116.24" y2="188.32"/><line class="cls-9" x1="141.22" y1="211.13" x2="132.76" y2="184.85"/><line class="cls-9" x1="161.94" y1="201.97" x2="148.19" y2="178.02"/><line class="cls-9" x1="180.3" y1="188.7" x2="161.87" y2="168.13"/><line class="cls-9" x1="195.5" y1="171.9" x2="173.2" y2="155.62"/><line class="cls-9" x1="206.87" y1="152.32" x2="181.68" y2="141.02"/><line class="cls-9" x1="213.93" y1="130.79" x2="186.93" y2="124.98"/><line class="cls-9" x1="216.35" y1="108.27" x2="188.74" y2="108.2"/><line class="cls-9" x1="214.04" y1="85.74" x2="187.02" y2="91.41"/><line class="cls-9" x1="207.09" y1="64.18" x2="181.84" y2="75.34"/><line class="cls-9" x1="195.81" y1="44.53" x2="173.44" y2="60.71"/><line class="cls-9" x1="180.7" y1="27.66" x2="162.17" y2="48.13"/><line class="cls-9" x1="162.41" y1="14.3" x2="148.54" y2="38.18"/><line class="cls-9" x1="141.74" y1="5.04" x2="133.14" y2="31.28"/><line class="cls-9" x1="119.59" y1="0.27" x2="116.64" y2="27.73"/><circle class="cls-8" cx="108" cy="108" r="1.68"/></g><polygon class="cls-10" points="108 9.57 67.52 18.17 34.04 42.49 13.35 78.33 9.03 119.49 21.81 158.85 49.5 189.6 87.31 206.43 128.69 206.43 166.5 189.6 194.19 158.85 206.97 119.49 202.65 78.33 181.96 42.49 148.48 18.17 108 9.57"/><circle class="cls-2" cx="108.33" cy="108.58" r="90.75"/><path class="cls-11" d="M140.49,142.34c.07,4.19-6,7.59-13.56,7.6-7.24,0-13.22-3.09-13.78-7a4.55,4.55,0,0,1,0-.53v-6.23c0-.14,0-.28,0-.42.39-3.95,6.27-7.09,13.53-7.1,7.56,0,13.75,3.37,13.83,7.56Z"/><g class="cls-12"><path class="cls-2" d="M136.46,108c.81,1.4.37,4.62.37,4.62v30.2c0,3-4.32,5.44-9.75,5.45s-9.89-2.42-10-5.43V121.21l-2.55-1.68-87-50.22L49.4,56.94l75.08,43.35,7.69,4.44S135.66,106.6,136.46,108Z"/></g><path class="cls-8" d="M86.67,73.89a.13.13,0,0,0-.08,0v0Z"/><path class="cls-13" d="M138.79,127.59a5.25,5.25,0,0,1,1.7,3.6c.07,4.18-6,7.58-13.56,7.6s-13.75-3.38-13.82-7.56a5.64,5.64,0,0,1,2.52-4.45"/><path class="cls-14" d="M96.49,114.77l-12.93-7.35c-4.13-2.25-4.07-10.06.12-17.44s10.93-11.54,15.06-9.29l16,9.08"/><line class="cls-14" x1="100.91" y1="117.33" x2="92.2" y2="112.12"/><path class="cls-13" d="M120.32,96c-.29-2.38-1.28-4.25-3-5.17-4.12-2.26-10.86,1.9-15.06,9.28s-4.24,15.19-.12,17.45a6.6,6.6,0,0,0,5.89-.18"/><path class="cls-2" d="M106.2,57.05a5.81,5.81,0,0,0,3.64,1.7c2.48.3,3.5,0,8.82-.94s9-2.35,12-1.53a5.7,5.7,0,0,1,4,5.72,5.8,5.8,0,0,1-4.4,5.86c-3,.82-6.61-.63-12-1.53s-6.35-1.24-8.83-.94-3.13,3.32-3.34,4.27,0,7.67,0,7.67c0,1.06-1.64,1.91-3.67,1.91s-3.66-.85-3.66-1.91c0,0,.13-6.62,0-7.45s-1.43-4.19-3.91-4.49-3.49,0-8.82.94-9,2.35-12,1.53A5.8,5.8,0,0,1,69.76,62a5.7,5.7,0,0,1,4-5.72c3-.82,6.61.63,12,1.53s6.35,1.24,8.83.94a5.81,5.81,0,0,0,3.64-1.7l.23-.17a5.66,5.66,0,0,1,7.45,0Z"/><polyline class="cls-15" points="97.74 84.29 97.74 65.97 106.69 65.97 106.69 89.36"/><circle class="cls-16" cx="102.21" cy="61.68" r="7.62"/><path class="cls-17" d="M133.32,166.15a5.88,5.88,0,1,1-11.75-.06c0-4.63,5.92-10.13,5.92-10.13S133.34,161.52,133.32,166.15Z"/><path class="cls-8" d="M45.57,153.74l1,1.3-3.91,3,1.54,2-1.13.86-2.53-3.33Z"/><path class="cls-8" d="M47.69,164.79l-1.76-2-.93.4-1.19-1.33,6.31-2.45L51.49,161l-3.12,6-1.18-1.32Zm-.45-2.56,1.18,1.32,1.32-2.38Z"/><path class="cls-8" d="M53.34,166.45l-2.6,2.81-1.2-1.11,4.29-4.65,1.24,1.14-.58,4.42L57,166.38l1.21,1.12-4.3,4.65-1.16-1.07Z"/><path class="cls-8" d="M59.48,168.57l1.3,1-3,3.87,2,1.57-.87,1.12-3.31-2.57Z"/><path class="cls-8" d="M163.93,169.92l-2,1.74.39.93L161,173.77l-2.38-6.34,1.55-1.35,6,3.18-1.34,1.17Zm-2.57.42,1.34-1.17-2.37-1.35Z"/><path class="cls-8" d="M165.64,164.31l2.78,2.63-1.12,1.19-4.6-4.35,1.15-1.22,4.42.63-2.65-2.5,1.13-1.19,4.6,4.34L170.27,165Z"/><path class="cls-8" d="M171.4,160.47a2.88,2.88,0,0,0,1.91-1.08c.35-.44.38-.85.14-1s-.65,0-1.18.45c-.81.69-1.93,1.68-3.1.75-.84-.66-1-1.94,0-3.21a3.86,3.86,0,0,1,2.28-1.48l.37,1.42a2.91,2.91,0,0,0-1.62,1c-.34.43-.3.73-.08.9s.59,0,1.13-.5c.82-.69,2-1.64,3.08-.75s1.08,2,0,3.39a3.83,3.83,0,0,1-2.53,1.58Z"/><path class="cls-8" d="M171.71,153.12l.93-1.35,5.2,3.6-.93,1.35Z"/><path class="cls-4" d="M36.89,155.5A85.58,85.58,0,0,1,29,76.78"/><path class="cls-4" d="M160.54,176.24a85.5,85.5,0,0,1-99.72,3.39"/><path class="cls-4" d="M187.89,77.3a85.66,85.66,0,0,1-6.48,75.6"/><path class="cls-4" d="M40.55,153.29a81.32,81.32,0,0,1-7.56-75"/><path class="cls-4" d="M157.87,172.9a81.24,81.24,0,0,1-94.92,3"/><path class="cls-4" d="M184,79a81.32,81.32,0,0,1-6.39,72"/><path class="cls-4" d="M43.77,151a77.26,77.26,0,0,1-7.35-70.61"/><path class="cls-4" d="M155.5,169.52a77.19,77.19,0,0,1-90.34,3.06"/><path class="cls-4" d="M180,80.37a77.24,77.24,0,0,1-6,68.52"/><path class="cls-4" d="M164.83,44.47a85.48,85.48,0,0,1,16.51,108.3"/><path class="cls-4" d="M36.46,154.92A85.49,85.49,0,0,1,50.58,45.42"/><path class="cls-4" d="M162.05,47.72a81.2,81.2,0,0,1,15.66,102.8"/><path class="cls-4" d="M40.19,152.8A81.22,81.22,0,0,1,53.49,48.54"/><path class="cls-4" d="M159.45,50.84a77.15,77.15,0,0,1,14.88,97.43"/><path class="cls-4" d="M43.7,150.75A77.13,77.13,0,0,1,56.48,51.31"/><circle class="cls-10" cx="108.07" cy="108.12" r="72.25"/><path class="cls-8" d="M61.92,40.76l1.87,4.81L62,46.82l-6.45-5.27,1.9-1.32,4.05,3.7-1.93-5.17,1.31-.91L65,41.46,63,36.39l1.91-1.33,2.68,7.88-1.79,1.25Z"/><path class="cls-8" d="M74.48,37.78l-3,1.52.19,1.27-2,1-1-8.5,2.31-1.18,6.35,5.74-2,1Zm-3.27-.27,2-1L70.72,34.1Z"/><path class="cls-8" d="M77.65,30.94l-2.1.81-.65-1.68L81,27.72l.65,1.68-2.09.8L81.81,36l-1.93.75Z"/><path class="cls-8" d="M83.66,26.88l5.66-1.53L89.78,27l-3.67,1,.34,1.28,3.59-1L90.5,30l-3.59,1,.38,1.39,3.67-1,.45,1.68L85.75,34.6Z"/><path class="cls-8" d="M96.24,29.46l-1,.16.41,2.68-2,.31L92.36,24.7l4-.6a2.57,2.57,0,0,1,3.15,2.21,2.41,2.41,0,0,1-1.21,2.61l2.06,2.66L98,31.94Zm0-3.6-1.62.25.28,1.78,1.61-.25a.9.9,0,1,0-.27-1.78Z"/><path class="cls-8" d="M114.46,26l-2.25,5.32-.91,0-1.79-5.48-.23,5.39-2.06-.08.33-8,2.87.12,1.48,4.6,1.87-4.46,2.86.12-.33,8-2.07-.09Z"/><path class="cls-8" d="M123.91,24.52a4.14,4.14,0,1,1-5,3.29A4.06,4.06,0,0,1,123.91,24.52Zm-.33,1.79A2.16,2.16,0,0,0,121,28.19a2.18,2.18,0,1,0,4.28.79A2.15,2.15,0,0,0,123.58,26.31Z"/><path class="cls-8" d="M131,26.2l3.2,1c2.39.77,3.65,2.77,2.89,5.13s-3,3.25-5.34,2.48l-3.21-1Zm1.29,6.94a2.13,2.13,0,0,0,2.79-1.42A2,2,0,0,0,133.68,29l-1.24-.4-1.35,4.19Z"/><path class="cls-8" d="M141.06,29.7l5.33,2.44-.72,1.58-3.46-1.58-.55,1.21L145,34.89l-.73,1.6-3.38-1.55-.6,1.31,3.46,1.58-.72,1.58L137.73,37Z"/><path class="cls-8" d="M149.06,33.55l1.78,1L147.71,40l2.77,1.62-.9,1.55L145,40.46Z"/><path class="cls-8" d="M153.31,42.41a3.64,3.64,0,0,0,1.44,2.36c.57.42,1.1.43,1.33.12s0-.82-.63-1.47c-.91-1-2.2-2.35-1.08-3.88.79-1.09,2.4-1.35,4.06-.14a4.86,4.86,0,0,1,2,2.82l-1.78.52a3.76,3.76,0,0,0-1.33-2c-.55-.4-.93-.33-1.14-.05s.07.74.69,1.4c.9,1,2.15,2.39,1.08,3.86-.95,1.29-2.54,1.46-4.28.19A4.91,4.91,0,0,1,151.52,43Z"/><path class="cls-18" d="M105.35,180.31A72.29,72.29,0,0,1,94.14,179c-2.37,9.67-5.07,20.7-6.73,27.42h41.31c-.83-3.35-1.91-7.77-3.09-12.56s-2.44-10-3.63-14.83A72.72,72.72,0,0,1,105.35,180.31Z"/><circle class="cls-19" cx="102.93" cy="197.63" r="3.75"/><circle class="cls-20" cx="113.2" cy="197.63" r="3.75"/><circle class="cls-21" cx="108.07" cy="189.05" r="3.75"/></g></svg>